<?xml version="1.0" encoding="UTF-8" ?>
<!DOCTYPE svg PUBLIC "-//W3C//DTD SVG 1.1//EN" "http://www.w3.org/Graphics/SVG/1.1/DTD/svg11.dtd">
<svg width="500pt" height="500pt" viewBox="0 0 500 500" version="1.1" xmlns="http://www.w3.org/2000/svg">
<g id="#e5e6e7ff">
<path fill="#bbb" opacity="1.00" d=" M 329.55 39.39 C 330.99 36.52 334.65 35.08 337.62 36.41 C 372.29 53.73 407.00 70.98 441.69 88.27 C 460.20 97.61 478.90 106.57 497.28 116.14 C 497.34 118.17 497.26 120.29 496.08 122.04 C 448.99 198.27 401.90 274.51 354.84 350.77 C 347.39 362.65 340.17 374.69 332.61 386.51 L 332.13 386.28 C 330.96 383.19 329.04 380.49 327.32 377.70 C 292.88 321.90 258.42 266.12 223.98 210.32 C 259.19 153.36 294.35 96.36 329.55 39.39 Z" />
</g>
<g id="#8a8b8cff">
<path fill="#fff" opacity="1.00" d=" M 0.00 42.97 C 0.55 40.87 1.68 38.53 4.01 38.04 C 7.12 37.19 9.89 39.25 12.58 40.46 C 18.93 43.35 25.13 46.55 31.38 49.64 C 74.11 70.93 116.85 92.20 159.58 113.49 C 161.79 114.62 164.14 115.54 166.09 117.13 C 166.20 118.75 166.33 120.37 166.37 122.00 C 166.37 182.55 166.35 243.10 166.37 303.65 C 166.41 353.42 166.38 403.18 166.39 452.95 C 166.46 456.47 165.70 460.53 162.58 462.66 C 159.35 464.87 155.14 463.89 151.91 462.21 C 104.69 438.70 57.49 415.17 10.27 391.66 C 4.54 389.00 0.57 383.08 0.00 376.82 L 0.00 42.97 Z" />
</g>
<g id="#ffffffff">
<path fill="#999" opacity="1.00" d=" M 497.28 116.14 C 499.74 118.01 499.10 121.29 499.16 123.98 C 499.15 233.62 499.16 343.27 499.16 452.92 C 499.26 456.56 498.40 460.87 495.00 462.88 C 491.80 464.82 487.83 463.82 484.71 462.22 C 434.00 437.01 383.35 411.67 332.61 386.51 C 340.17 374.69 347.39 362.65 354.84 350.77 C 401.90 274.51 448.99 198.27 496.08 122.04 C 497.26 120.29 497.34 118.17 497.28 116.14 Z" />
</g>
<g id="#abacadff">
<path fill="#ddd" opacity="1.00" d=" M 166.09 117.13 C 166.83 118.03 167.53 118.97 168.17 119.95 C 186.78 150.07 205.37 180.21 223.98 210.32 C 258.42 266.12 292.88 321.90 327.32 377.70 C 329.04 380.49 330.96 383.19 332.13 386.28 C 296.75 368.99 261.61 351.19 226.32 333.71 C 206.37 323.63 186.18 313.98 166.37 303.65 C 166.35 243.10 166.37 182.55 166.37 122.00 C 166.33 120.37 166.20 118.75 166.09 117.13 Z" />
</g>
</svg>
