<?xml version="1.0" encoding="UTF-8" ?>
<!DOCTYPE svg PUBLIC "-//W3C//DTD SVG 1.1//EN" "http://www.w3.org/Graphics/SVG/1.1/DTD/svg11.dtd">
<svg width="300pt" height="300pt" viewBox="0 0 300 300" version="1.1" xmlns="http://www.w3.org/2000/svg">
<g>
<path fill="#fff" opacity="1.00" d=" M 81.04 25.09 C 102.60 8.04 130.49 -0.98 157.97 0.78 C 183.80 2.28 208.64 13.89 227.17 31.82 C 248.22 51.77 261.73 79.36 265.09 108.13 C 265.28 109.83 265.53 111.54 266.10 113.16 C 266.69 119.39 266.93 125.70 266.12 131.92 C 264.49 138.05 264.17 144.46 262.36 150.56 C 254.96 178.19 240.96 203.55 225.08 227.15 C 211.79 246.41 196.99 264.72 180.03 280.88 C 171.63 288.31 163.05 296.40 151.99 299.55 L 151.78 300.00 L 150.78 300.00 C 147.23 297.83 142.84 297.20 139.39 294.70 C 122.45 284.11 108.72 269.22 95.77 254.19 C 74.46 228.55 55.84 200.27 43.58 169.15 C 37.89 154.41 33.90 138.84 33.68 122.98 C 33.98 114.57 34.67 106.15 36.42 97.90 C 42.17 69.42 58.08 42.99 81.04 25.09 M 133.13 50.31 C 140.10 55.06 145.74 62.36 146.74 70.94 C 149.76 86.53 136.99 103.09 121.00 103.59 C 109.44 104.60 97.92 97.21 93.63 86.52 C 92.86 84.77 92.65 82.70 91.24 81.31 C 79.91 100.22 76.59 124.45 84.84 145.16 C 91.30 162.12 104.91 176.01 121.35 183.53 C 139.03 191.51 160.25 192.55 178.07 184.43 C 194.95 176.92 208.52 162.37 215.13 145.14 C 220.54 131.13 220.87 115.43 217.00 100.98 C 211.74 80.42 197.11 62.13 177.59 53.50 C 163.74 47.09 147.78 46.67 133.13 50.31 Z" />
</g>
</svg>
