<svg xmlns="http://www.w3.org/2000/svg" viewBox="0 0 250 130.47"><path class="svg" d="M121.85.1a13.14,13.14,0,0,1,10.86,3.79,13.62,13.62,0,0,1,3.79,11,13.42,13.42,0,0,1-10.88,11.52,12.92,12.92,0,0,1-10.82-3.2,13.7,13.7,0,0,1-4.32-8.32A13.35,13.35,0,0,1,121.85.1Z"/><path class="svg" d="M95.28,16.17a8,8,0,0,1,6.43,1.89,8.33,8.33,0,0,1-.73,13.1,8,8,0,0,1-8.88.11,8.34,8.34,0,0,1-3.58-8.67A8.21,8.21,0,0,1,95.28,16.17Z"/><path class="svg" d="M149.38,16.17a8.18,8.18,0,0,1,9.06,6.32,8.4,8.4,0,0,1-3.57,8.79,8.08,8.08,0,0,1-7,.83,8.27,8.27,0,0,1,1.52-15.94Z"/><path class="svg" d="M104.57,32.22a10.43,10.43,0,0,1,6.72-2.35h24a10.72,10.72,0,0,1,7.3,2.5,17.35,17.35,0,0,1,2.88,3.56q9.21,12.82,18.43,25.66a7.71,7.71,0,0,1,1.09,7,7.47,7.47,0,0,1-6.77,5.14c-3.58.08-7.16,0-10.74,0a10.74,10.74,0,0,1-.19,2.66A2.2,2.2,0,0,1,145,77.55H102a2.26,2.26,0,0,1-2.19-.94,7.38,7.38,0,0,1-.29-2.85c-3.11,0-6.21,0-9.32,0a10,10,0,0,1-3.85-.56,7.59,7.59,0,0,1-4.68-6.29,7.72,7.72,0,0,1,1.44-5.32l18-25c1.12-1.5,2-3.2,3.53-4.38M99.5,45q0,14.3,0,28.58h47.95c0-9.4,0-18.79,0-28.19a3.19,3.19,0,0,0-.58-2.25,3,3,0,0,0-2.28-.78H104.13a11.82,11.82,0,0,0-3.2.2A2.42,2.42,0,0,0,99.5,45Z"/><path class="svg" d="M83.56,37.3a6.33,6.33,0,0,1,5.16-2.69c3.39,0,6.78,0,10.16,0-1.84,2.57-3.7,5.13-5.53,7.71-3.44,0-6.88,0-10.33,0A1.43,1.43,0,0,0,81.6,44c0,4.53,0,9.07,0,13.61.14,1.67-1.43,2.75-2,4.21-2.37-.16-5,.57-7.14-.85a4.78,4.78,0,0,1-1-6.7C75.44,48.57,79.55,43,83.56,37.3Z"/><path class="svg" d="M148.09,34.6c3.37,0,6.76,0,10.13,0a6.28,6.28,0,0,1,5,2.5c4.12,5.79,8.33,11.52,12.42,17.34a4.76,4.76,0,0,1-2.08,7c-2,.67-4.16.24-6.23.34a25.94,25.94,0,0,0-2-3.11c0-4.91,0-9.82,0-14.73a1.45,1.45,0,0,0-1.46-1.61c-3.44-.05-6.87,0-10.31,0C151.79,39.73,149.92,37.17,148.09,34.6Z"/><path class="svg" d="M122.21,53.51a5.05,5.05,0,0,1,6.28,4.39,5.11,5.11,0,0,1-4.66,5.62,5.1,5.1,0,0,1-1.62-10Z"/><path class="svg" d="M71.11,95.75h4.68q0,16.91,0,33.84H71.09c0-.92,0-1.85,0-2.78a9,9,0,0,1-5.35,3.36,12.4,12.4,0,0,1-11.63-3.25,13.75,13.75,0,0,1,.21-18.43c4.43-4.25,12.64-4.65,16.76.22,0-4.32,0-8.63,0-12.94M61.92,109.6a8.27,8.27,0,0,0-6.54,8.88,8.16,8.16,0,0,0,7.92,7.71,8,8,0,0,0,7.42-5.6,8.67,8.67,0,0,0-1.42-8.15A7.56,7.56,0,0,0,61.92,109.6Z"/><path class="svg" d="M165.32,96.16h8.37q0,16.71,0,33.42h-8.38C165.32,118.44,165.3,107.3,165.32,96.16Z"/><path class="svg" d="M199.26,96.16h8.4c0,4.38,0,8.78,0,13.16,1.12-.8,2-2,3.26-2.56A9.61,9.61,0,0,1,221,108a11.81,11.81,0,0,1,3.93,7.93,15.14,15.14,0,0,1-2,9.88,9.63,9.63,0,0,1-12.31,3.28c-1.16-.55-1.87-1.67-2.92-2.37,0,.94,0,1.88,0,2.83h-8.4q0-16.71,0-33.42m11.34,17a5,5,0,0,0-3.27,5.36,4.68,4.68,0,0,0,5,4.6c2.8-.11,4.62-3.11,4.22-5.72A4.66,4.66,0,0,0,210.6,113.13Z"/><path class="svg" d="M25,97.06c7.56,0,15.11,0,22.67,0,0,1.52,0,3,0,4.56H30.07v8.9c5.26,0,10.52,0,15.79,0V115H30.07v10c6,0,12,0,18,0,0,1.5,0,3,0,4.51H25Q25,113.32,25,97.06Z"/><path class="svg" d="M109.09,101.92a17.59,17.59,0,0,1,12.25-5c5.44-.2,11.2,1.89,14.53,6.34a14.6,14.6,0,0,1,2.56,6.24c-2.92.4-5.86.64-8.78,1a8,8,0,0,0-3.44-4.8,8.2,8.2,0,0,0-8.9.48,10,10,0,0,0-.48,14.29,8,8,0,0,0,10.69-.1,7.65,7.65,0,0,0,2.14-3.67c3,.41,6,.64,9,1.08a10.92,10.92,0,0,1,4.23-9.28,14.19,14.19,0,0,1,8.58-2.58,15,15,0,0,1,7.58,1.77,10.94,10.94,0,0,1,5.46,8.31,13,13,0,0,1-1.7,8.82,11.72,11.72,0,0,1-8.46,5.11c-3.63.47-7.53.12-10.69-1.87a11.09,11.09,0,0,1-4.81-7,16.11,16.11,0,0,0-.54-3.19,11,11,0,0,1-2.87,6.87c-3.41,3.85-8.67,5.59-13.73,5.48a17.55,17.55,0,0,1-12.84-5.31c-5.75-6.21-5.69-16.94.27-23m40.66,11.34c-2.94,1.23-3.53,5.28-2,7.83a4.67,4.67,0,0,0,7.24.55,5.72,5.72,0,0,0-.3-7.51A4.64,4.64,0,0,0,149.75,113.26Z"/><path class="svg" d="M80.19,106c1.57,0,3.14,0,4.7,0,0,4.63,0,9.27,0,13.9a6.67,6.67,0,0,0,1.24,4,5.59,5.59,0,0,0,5.84,2,6.87,6.87,0,0,0,4.86-4.28,11.48,11.48,0,0,0,.37-3.92c0-3.9,0-7.81,0-11.72,1.55,0,3.11,0,4.67,0,0,7.85,0,15.7,0,23.55q-2.33,0-4.65,0c0-.81,0-1.63,0-2.45-3,4-9.25,4.16-13.13,1.41-2.65-1.86-3.69-5.24-3.76-8.35C80.19,115.46,80.23,110.74,80.19,106Z"/><path class="svg" d="M177.57,108.81c2.49-2.3,6-3,9.31-2.9s6.63.86,8.93,3.24a8,8,0,0,1,2.08,5.73q0,7.35.05,14.7h-8.52a19.06,19.06,0,0,0-.16-2.92c-2.76,3.85-8.7,4.44-12.55,2a6.6,6.6,0,0,1-1.65-8.34,7.82,7.82,0,0,1,4-3.09c3.32-1.4,7-1.65,10.49-2.14-.12-1-.06-2.23-.85-3a3.35,3.35,0,0,0-5,.72,7.21,7.21,0,0,0-.49,1.64c-2.7,0-5.4,0-8.09,0a8.31,8.31,0,0,1,2.47-5.6m5.87,12a2.22,2.22,0,0,0-.15,3.76,4.29,4.29,0,0,0,5.5-1.28,6.17,6.17,0,0,0,.64-3.69C187.43,119.94,185.29,119.84,183.44,120.77Z"/></svg>