<svg xmlns="http://www.w3.org/2000/svg" viewBox="0 0 250 43.77"><path class="svg" d="M13,0H57.48c0,12.87,0,25.73,0,38.6a5.2,5.2,0,0,1-5.39,5.14c-13.65,0-27.3,0-40.95,0A8.42,8.42,0,0,0,13,38.22Q13,19.11,13,0M38.61,6.93c-1.4.23-1.12,2.73.35,2.59,3.35.11,6.69,0,10,.05.72-.06,1.74.15,2.13-.65a1.36,1.36,0,0,0-1.21-2.07c-3.77,0-7.55-.13-11.31.08M20.54,8.2c0,3.19,0,6.39,0,9.57,3.65,0,7.29,0,10.94,0,0-3.2,0-6.39,0-9.58-3.65,0-7.31,0-10.95,0m18,8.3a1.35,1.35,0,0,0,.4,2.61c3.64.07,7.28.05,10.92,0a1.32,1.32,0,0,0,1.34-1.78c-.22-1-1.43-1-2.23-.95-3.47.09-7-.14-10.43.11M20.39,25.36A1.32,1.32,0,0,0,20.31,28c9.72.1,19.44,0,29.16,0,.75.07,1.77-.22,1.81-1.12.24-1-.88-1.79-1.82-1.6-9.69,0-19.38-.07-29.07.06m-.48,9a1.35,1.35,0,0,0,.77,2.53c9.29.06,18.59,0,27.88,0,1,0,2.24.19,2.72-.89a1.5,1.5,0,0,0-1.8-1.84q-14.41,0-28.83,0Z"/><path class="svg" d="M0,8.19c3.42,0,6.84,0,10.26,0,0,10,0,20,0,30A5.16,5.16,0,0,1,1,41.73a6.17,6.17,0,0,1-1-4Q0,23,0,8.19Z"/><path class="svg" d="M161.11,6.41h6.95q0,14.39,0,28.76H162.3c-.34-.87-.66-1.75-1-2.64a8.9,8.9,0,0,1-5.08,2.95,8.79,8.79,0,0,1-9-3.93,13,13,0,0,1-.72-11,8.51,8.51,0,0,1,14.64-2.74c0-3.79,0-7.58,0-11.37m-5.59,13.72a4.22,4.22,0,0,0-2.59,3.42,7.77,7.77,0,0,0,.81,5.35c1.72,2.37,6.14,1.85,7-1.07.62-2.11.67-4.68-.71-6.51A4,4,0,0,0,155.52,20.13Z"/><path class="svg" d="M171.25,6.4h6.94c0,7.39,0,14.78,0,22.16.06,1.63,2,1.52,3.15,1.52v5.13a12.17,12.17,0,0,1-7.12-.26c-2.24-1-2.95-3.66-3-5.91C171.23,21.5,171.25,14,171.25,6.4Z"/><path class="svg" d="M77.13,8.14h7.05V18.6h8.4V8.14h7.17q0,13.51,0,27H92.58c0-3.78,0-7.55,0-11.33h-8.4V35.16c-2.35,0-4.7,0-7.05,0Q77.12,21.65,77.13,8.14Z"/><path class="svg" d="M104.91,17.41c2.55-2.53,6.43-3.1,9.84-2.55a8.9,8.9,0,0,1,6.29,4c1.59,2.49,1.78,5.56,1.71,8.43-4.64,0-9.28,0-13.92,0A5.09,5.09,0,0,0,113,30.67a13.07,13.07,0,0,0,8.22-1.47c0,1.61,0,3.22-.06,4.84-4.52,1.88-9.92,2.28-14.35,0a8.73,8.73,0,0,1-4.64-6.27c-.66-3.59,0-7.7,2.74-10.32m5,2.87a6.3,6.3,0,0,0-1.07,3.11h7.76a5.54,5.54,0,0,0-1.2-3.19A3.68,3.68,0,0,0,109.91,20.28Z"/><path class="svg" d="M126.46,16.14c3.52-1.1,7.31-2,11-1,3.16.63,6.45,3,6.52,6.51.11,4.52,0,9,.05,13.55-1.84,0-3.68,0-5.52,0-.22-.92-.44-1.84-.67-2.76a8.07,8.07,0,0,1-3.76,2.84,9.52,9.52,0,0,1-8.32-1.43c-3-2.59-2.12-8.09,1.35-9.88,3.17-1.72,7-1.57,10.45-1.37a3,3,0,0,0-2.63-3.26c-2.89-.46-5.77.61-8.45,1.63,0-1.59,0-3.18,0-4.77m5.07,11a2.25,2.25,0,0,0,.35,4c2.8.69,6.05-1.64,5.63-4.68C135.52,26.49,133.39,26.22,131.53,27.1Z"/><path class="svg" d="M212.58,18.78a7.07,7.07,0,0,1,6.35-4.11c2.11.05,4.46.27,6.08,1.79,1.93,1.73,2.48,4.44,2.52,6.93,0,3.92,0,7.85,0,11.77-2.14,0-4.28,0-6.42,0,0-3.06,0-6.11,0-9.17A7.65,7.65,0,0,0,220,21.48c-1.12-1.54-3.61-1.47-4.94-.25s-1.73,3.39-1.86,5.22c-.07,2.9,0,5.8,0,8.71-2.32,0-4.64,0-6.95,0q0-10,0-20h5.21C211.8,16.34,212.19,17.56,212.58,18.78Z"/><path class="svg" d="M232.14,17.41c2.46-2.44,6.17-3.06,9.48-2.6a9,9,0,0,1,6.48,3.79c1.75,2.53,2,5.74,1.89,8.71-4.64,0-9.28,0-13.92,0a5.07,5.07,0,0,0,4.2,3.33,13.11,13.11,0,0,0,8.19-1.47c0,1.6,0,3.2,0,4.81-4.51,1.93-9.92,2.31-14.36,0a8.71,8.71,0,0,1-4.65-6.27c-.67-3.59,0-7.7,2.73-10.33M237,20.52a7.22,7.22,0,0,0-.88,2.87h7.76a5.53,5.53,0,0,0-1.22-3.21A3.67,3.67,0,0,0,237,20.52Z"/><path class="svg" d="M182.55,15.12c2.43,0,4.85,0,7.28,0,1.5,4.4,2.87,8.84,4.38,13.23,1.4-4.4,2.78-8.81,4.18-13.2h6.91c-2.83,6.3-5.17,12.81-7.6,19.27-1,2.48-1.84,5.17-3.77,7.1-2.33,2-5.65,1.77-8.54,2V38.65a18.36,18.36,0,0,0,3.78-.17,2.65,2.65,0,0,0,1.27-3.28Z"/></svg>