<svg xmlns="http://www.w3.org/2000/svg" viewBox="0 0 250 190.11"><path class="a" d="M61,136.1,40.11,189V136.32H31.3v34.74L6.66,136.39H0v52.86H8.74V154.37L33.6,189.25h6.51v-.07h9.32l3.36-8.59A42.65,42.65,0,0,0,64,182a42.59,42.59,0,0,0,11.25-1.36l3.43,8.59h9.46L66.91,136.1Zm-4.87,36.39,8-20.05,8,20.12a37,37,0,0,1-8,.79A30.12,30.12,0,0,1,56.09,172.49Z"/><path class="a" d="M127.44,144.41a18.05,18.05,0,0,1,14.39,7.67l1.36,1.86,8-3.58-1.79-2.8a24.27,24.27,0,0,0-3.23-3.94,26.34,26.34,0,0,0-18.12-8H127A27.22,27.22,0,0,0,127,190h1v.14a26.53,26.53,0,0,0,18.12-8,24.78,24.78,0,0,0,3.3-4l1.79-2.79-8-3.58-1.36,1.86a18.49,18.49,0,1,1-14.39-29.23Z"/><path class="a" d="M180.44,171.63a9.64,9.64,0,0,1-19.27,0V136.32h-8.73v35.31a18.37,18.37,0,0,0,36.74,0V136.32h-8.74Z"/><rect class="a" x="192.48" y="136.17" width="8.81" height="53.08"/><path class="a" d="M228.72,136.1h-5.94l-20.92,53.08h9.46l3.36-8.59a45.78,45.78,0,0,0,22.43.07l3.43,8.59H250Zm-2.79,37.25a30.12,30.12,0,0,1-8-.86l7.88-20.05,8,20.12A35.9,35.9,0,0,1,225.93,173.35Z"/><path class="a" d="M210.6,20.06c-.57,2.29-1,4.44-1.57,6.52A175.52,175.52,0,0,1,197.56,59.1a109.38,109.38,0,0,1-18.62,28.29A71.92,71.92,0,0,1,149.86,107c-1.15.43-2.37.79-3.51,1.14s-2.51.72-3.87,1.08c-2.08-2.79-4.23-5.45-6.09-8.31-1.72-2.65-1.58-2.79,1.29-3.94A126,126,0,0,0,159.6,85.74a92.06,92.06,0,0,0,12.32-10.17,104.59,104.59,0,0,0,15.33-17.48A67.29,67.29,0,0,0,196,40.9c.64-1.86,1.43-3.72,1.93-5.66a6.81,6.81,0,0,0-.64-4.58,6.84,6.84,0,0,0-2.08,3.51c-1.65,7.88-5.66,14.68-9.88,21.35-9,14.11-21.06,24.92-35.68,32.95-4.51,2.5-9.31,4.51-14,6.73a1.3,1.3,0,0,1-1.43-.14,17.25,17.25,0,0,1-6.88-8.24c-.43-.93-.86-1.86-1.29-2.94,24.57-9.67,41.19-27.15,50.58-51.65A3.44,3.44,0,0,0,173,34.1,79.34,79.34,0,0,1,156.3,60.17,98.27,98.27,0,0,1,128.65,80.3a16.72,16.72,0,0,1-3.15,1.15,3.26,3.26,0,0,1-3.87-1.51c-1.72-2.72-3.29-5.51-5-8.31l1-.57a89.74,89.74,0,0,0,22.21-16.19A63.62,63.62,0,0,0,154,32.66a3.59,3.59,0,0,1,.22-.57,4.59,4.59,0,0,0-4.3,3.3c-4.16,11.1-12,19.19-21.49,25.93-3.08,2.22-6.31,4.15-9.53,6.16a6.92,6.92,0,0,1-2.08.71,3.47,3.47,0,0,1-3.43-1.57c-1.37-1.79-2.65-3.65-4-5.45A18.53,18.53,0,0,1,108,59.24c-.79-1.15-.64-2,.57-2.72a5.58,5.58,0,0,1,1.29-.65,32.88,32.88,0,0,0,13.9-9.81c1.86-2.08,3.65-4.23,5.3-6.45a10.58,10.58,0,0,0,2-7.38c-1,.94-2.22,1.37-2.65,2.73-1.29,4.3-4,7.59-7.24,10.53a70.28,70.28,0,0,1-10.46,7.81c-3.08,1.86-4.29,1.64-6.73-.94a49.17,49.17,0,0,1-3.44-4.15c-1.36-1.72-1.14-2.72.72-3.87s3.87-2.15,5.73-3.44c2.43-1.65,4.44-3.72,5.16-6.73a9.39,9.39,0,0,0,.28-1.36v-.58c-1,.94-1.86,1.72-2.72,2.51a41.28,41.28,0,0,1-7.74,6.31,12.92,12.92,0,0,1-2.72,1.21,3.53,3.53,0,0,1-4.3-1.43c-.57-.86-1.07-1.72-1.64-2.65a17.38,17.38,0,0,0-5.09-5.59c-.36-.21-.72-.43-1.15-.71-.28,1.43-.57,2.79-.93,4.15a58.2,58.2,0,0,1-5.51,13.25C77.36,55,74.14,60.82,70.7,66.48c-1.93,3.22-4.37,6.16-6.66,9.38-.43-.57-.72-1-1-1.43C60.46,70,57.88,65.62,55.3,61.17a1.05,1.05,0,0,1,0-1.28c2.08-3.51,4-7.1,6-10.68,1.36-2.51,2.72-5,3.87-7.52a10,10,0,0,0,.35-8.45c-.14.36-.28.57-.35.79-1.58,4.08-3.08,8.16-4.73,12.1a33,33,0,0,1-2.8,4.94c-1.28,2.15-2.65,4.23-4.08,6.45A195.26,195.26,0,0,1,40.4,19.7H61l.07-.22-12-10.81L43,16.48h3.37c1.43,0,2.86-.08,4.29-.15a2.61,2.61,0,0,0,.65-.28c-.22-.15-.36-.22-.57-.36-1.44-.29-2.87-.58-4.44-.86l2.93-4.23,8.24,7.74c-1.58.07-2.87.14-4.15.14-4.23.07-8.46.22-12.68.29-.22,0-.58-.15-.58-.22,0-.43-.14-1,.07-1.36.94-1.36,2-2.58,3-3.87l5.59-7.16L64.54,18.34,80.3.72h-32L63,12.46l7.81-8H69.2c-2.65.14-5.3.22-8,.36a2,2,0,0,0-.72.29,2.12,2.12,0,0,0,.72.28h6.52l-4.59,5.09-11-8.1h24.5L64.47,16.69l-16-12.54L39.33,15.76c-.29-1.43-.65-2.65-.79-3.87-.07-.29.29-.64.5-.93,2.72-3.08,5.52-6.16,8.24-9.24.21-.22.43-.5.86-.93H37.32c-.57,0-.93-.07-.72-.79H213.9c0,.57,0,.57-2.51.93.64.5,1.15.93,1.72,1.36a.94.94,0,0,1,.43,1.15c-.14.64-.22,1.36-.36,2.15l-1.79-1.36-12.54,15.9ZM179.08,6.3l15.83,12.18L210.6.86H178.65l14.83,11.75,7.81-8.1-2.94.15c-2.29.07-4.58.21-6.87.28-.22,0-.36.22-.58.36.22.07.43.29.58.29,1.14,0,2.36-.07,3.51-.07h3.29l-4.66,5.15-11-8.31H207L194.91,16.62l-16-12.47L166.33,20h25.29L179.51,8.67l-6.09,7.81c.29,0,.43.07.58.07,2.36-.07,4.72-.07,7-.15l.64-.21-.64-.43a1,1,0,0,0-.43-.07L176.65,15l2.93-4.23,8.24,7.74-18.62.43ZM101.15,20h25.21L114.26,8.67l-6,7.73h7.45l.71-.21a1.43,1.43,0,0,0-.71-.43c-1.36-.29-2.8-.5-4.3-.79l2.94-4.3,8.23,7.74-18.62.43L113.75,6.3l15.83,12.18L145.27.86h-31.8L128.3,12.61l7.8-8.1-2.86.15c-2.22.07-4.52.14-6.81.28a2.16,2.16,0,0,0-.71.29c.28.07.5.21.78.29h6.59l-4.58,5.08L117.34,2.44h24.42l-12.1,14.25-16-12.54ZM84.74,2.36h24.5L97.06,16.62,81,4.15,68.55,20H93.77L81.66,8.67l-6.09,7.81h2.65c1.72,0,3.37-.08,5.09-.15.14,0,.36-.21.5-.28a1.36,1.36,0,0,0-.43-.29c-.21-.07-.36-.07-.57-.14l-4-.79,2.93-4.23L90,18.34l-18.62.43L81.23,6.3,97.06,18.48,112.75.86H80.8l14.76,11.6,8-8-10.1.43c-.14,0-.29.22-.43.29a1.5,1.5,0,0,0,.43.28h6.88l-4.59,5.09Zm89.69,0L162.25,16.69l-16-12.54L133.74,20.06H159L146.92,8.67l-6,7.73h7.31a4.11,4.11,0,0,0,.86-.28l-.86-.43h-.29L144,15l2.94-4.3,8.31,7.74-18.63.43L146.42,6.3l15.83,12.18L178,.86H146.13l14.76,11.68,7.88-8-.07-.07c-3.3.15-6.59.22-9.89.43a1.46,1.46,0,0,0-.57.29l.07.21h7.45L161.1,10.6,149.93,2.36Z"/><path class="a" d="M88.9,37.46c1.57,1.94,3.15,3.66,4.51,5.59q8.16,11.39,16.19,22.85c3.15,4.52,6.3,9,9.38,13.61,1.22,1.79,2.3,3.73,3.58,5.52,1.44,2,3.08,3.87,4.52,5.8l4.73,6.45c.64.93,1.14,1.93,1.71,2.79l6,9,.43.64a37.93,37.93,0,0,1-4.8.72c-3.72.28-7.45.36-11.1.57a1.31,1.31,0,0,1-1.15-.57c-8.66-11.68-17.33-23.28-25.93-35-4.58-6.23-8.88-12.68-13.32-19a5.2,5.2,0,0,0-.5-.72,4.54,4.54,0,0,1-.29-5.08c2-4,3.8-8.17,5.66-12.25Z"/><path class="a" d="M80.37,56.73c.79.15,1.08.65,1.44,1.29A60.72,60.72,0,0,0,86,64.54c6.81,9.39,13.75,18.7,20.56,28.15,4.15,5.73,8.09,11.54,12.1,17.34a9.75,9.75,0,0,1,.58,1c-1.72-.21-3.23-.36-4.73-.57a66.54,66.54,0,0,1-20.85-6.74,4,4,0,0,1-1.14-1.07c-4.51-6.3-9-12.68-13.61-19-2.37-3.15-4.8-6.23-7.31-9.31a1.51,1.51,0,0,1-.36-1.44c.93-3.51,2.87-6.44,4.8-9.45Z"/><path class="a" d="M87.54,99.86C78.65,94.2,71.49,86.75,65.33,78.22a6.85,6.85,0,0,1,.72-.78l2.86-3.16Z"/><path class="a" d="M206,16.48h5.23c0,.07.07.14.07.21-.29,1.93-.29,1.93-2.22,2-2.15.07-4.3.07-6.45.14a3.09,3.09,0,0,1-.72-.07L211.6,6.38c1.44.64,1.51.71,1.08,2.5-.36.07-.72.07-.86.22C209.89,11.46,208,13.9,206,16.48Z"/><path class="a" d="M38.11,9.89c-.22-1.29-.5-2.37-.65-3.51a1.29,1.29,0,0,1,.43-.72c.36-.36.72-.65,1.22-1.15H37.18l-.36-2.15h7.66Z"/><path class="a" d="M212.39,10.89l-.79,4.44-2.36-.43,2.87-4.08Z"/></svg>