<svg xmlns="http://www.w3.org/2000/svg" viewBox="0 0 250 64.44"><defs><style>.a{fill:#fff;}</style></defs><title>radioufpa</title><path class="a" d="M55.1,58c5.73-14.89,4.15-28.81-6.81-40.69S23.65,2.75,8.43,7.19C21.12-3,42-3,55.05,11.37,68.47,26.14,65.8,46.81,55.1,58Z"/><path class="a" d="M41.57,64.1c4.88-12.92,3.47-24.93-6-35.17S14.31,16.34,1.1,20.12c10.6-8.61,28.83-9,40.31,3.64C53.32,36.82,50.53,54.84,41.57,64.1Z"/><path class="a" d="M183.84,6.87c1.69,0,3.21,0,4.72,0a1.44,1.44,0,0,1,.94.81c1.37,3.35,2.69,6.73,4,10.1.11.27.23.53.46,1.08l4.79-12.1,4.78,12.1c.49-1.2.9-2.16,1.29-3.13,1.05-2.65,2.13-5.28,3.12-8a1.28,1.28,0,0,1,1.46-1c1.37.06,2.74,0,4.27,0-.14.43-.22.76-.35,1.08q-4.47,11.13-9,22.25c-.15.38-.56.66-.86,1a4.23,4.23,0,0,1-.76-1c-1.33-3.13-2.63-6.27-4-9.56-1.35,3.3-2.62,6.46-3.94,9.59a4.35,4.35,0,0,1-.85,1,3.93,3.93,0,0,1-.76-.94q-4.54-11.16-9-22.35C184.07,7.65,184,7.33,183.84,6.87Z"/><path class="a" d="M169.49,31.06c-7.24,0-12.31-5-12.35-12.19s5-12.39,12.26-12.41,12.3,5,12.34,12.21S176.78,31,169.49,31.06Zm0-4.94a7,7,0,0,0,7.15-7.32,7,7,0,0,0-7.17-7.43c-4.19,0-7.16,3.1-7.13,7.45A7,7,0,0,0,169.45,26.12Z"/><path class="a" d="M247.67,18.81c4.32,3.72,2,9.59-1.68,11.2a11.92,11.92,0,0,1-2.67.7,9.19,9.19,0,0,1-1.66,0c-2.67,0-5.34,0-8.11,0V6.83h2.66c2.41,0,4.82,0,7.23.06A5.9,5.9,0,0,1,249.21,11c.94,2.66.8,5.26-1.28,7.46C247.83,18.57,247.76,18.69,247.67,18.81Zm-9.3,7.1c1.57,0,3.11.09,4.65,0a2.34,2.34,0,0,0,2-2.35,2.39,2.39,0,0,0-2.06-2.28c-1.5-.11-3,0-4.55,0Zm0-9.52c1.53,0,3,.06,4.41,0a2.24,2.24,0,0,0,2-2.33,2.25,2.25,0,0,0-1.88-2.4c-1.47-.08-3,0-4.49,0Z"/><path class="a" d="M124.25,30.75V6.87c.83,0,1.63,0,2.43,0a54.06,54.06,0,0,1,7,.25,11.22,11.22,0,0,1,9.58,12c-.32,7.11-5,11.58-12.12,11.61C128.88,30.76,126.62,30.75,124.25,30.75Zm4.87-4.88c3.2.32,6.15,0,8-2.95a7.41,7.41,0,0,0,.06-8.13c-1.82-3-4.79-3.39-8.06-3.08Z"/><path class="a" d="M86.71,21.7v9H82V7a2.26,2.26,0,0,1,.48-.1c3.08,0,6.16,0,9.24,0,3.53.1,5.94,2.33,6.6,5.92a7.07,7.07,0,0,1-4.2,7.89c-.1,0-.19.11-.39.22l5.5,9.8c-1.8,0-3.42,0-5,0-.26,0-.57-.4-.73-.69q-1.82-3.37-3.58-6.78C89,21.52,89,21.52,86.71,21.7ZM86.77,17c1.46,0,2.85,0,4.25,0a2.28,2.28,0,0,0,2.26-2.28c.14-1.5-.51-2.76-1.78-2.9a43.79,43.79,0,0,0-4.73,0Z"/><path class="a" d="M120.85,30.75c-1.64,0-3.16,0-4.68,0-.74,0-.92-.44-1-.93-.24-1.42-1-1.79-2.42-1.68a41.7,41.7,0,0,1-5,0c-.85,0-1.32.21-1.52,1a14.32,14.32,0,0,1-.55,1.49h-5.36c.14-.39.26-.73.39-1.07q4.4-11.05,8.8-22.11c.2-.52.32-1,1.1-1s.83.47,1,1q4.49,11.31,9,22.61C120.69,30.24,120.74,30.42,120.85,30.75Zm-10.14-13h-.24l-2.07,5.91h4.33Z"/><path class="a" d="M228.61,11.62h-7v4.73h6.1v4.84h-6.12v4.72H229V30.7H216.75V6.94h11.86Z"/><path class="a" d="M28.84,64.44c3.4-9.36,2.38-17.9-4.34-25.17S9.42,30.35,0,32.92c7.05-5.74,19.69-6.49,28.15,2.14A21.42,21.42,0,0,1,28.84,64.44Z"/><path class="a" d="M82.79,40.43h4.28v1.24c0,4.12,0,8.24,0,12.36,0,2.34.75,3.47,2.48,4a3.45,3.45,0,0,0,4.62-3.33c0-4.26,0-8.53,0-12.8V40.46h4.43v2.22c0,4,0,7.94,0,11.92A7.46,7.46,0,0,1,93.63,62a8.14,8.14,0,0,1-9.14-2.21,7.08,7.08,0,0,1-1.65-3.78c-.21-5.11-.13-10.24-.16-15.36C82.68,40.62,82.73,40.56,82.79,40.43Z"/><path class="a" d="M122.3,54v8.34H118V40.45c1.4,0,2.8,0,4.2,0,1.6,0,3.2,0,4.79.08a6.15,6.15,0,0,1,5.89,5.86c.35,3.79-1.81,7.79-6.88,7.61C124.84,54,123.66,54,122.3,54Zm.06-4.34c.28,0,.46.06.64.06,1.08,0,2.16,0,3.23,0a2.23,2.23,0,0,0,2.16-2.36,2.27,2.27,0,0,0-2-2.51c-1.32-.08-2.65,0-4,0Z"/><path class="a" d="M142.67,39.62l9.26,22.78c-1.57,0-3,.05-4.38,0-.31,0-.77-.51-.86-.86A1.79,1.79,0,0,0,144.47,60a34.66,34.66,0,0,1-4.67,0c-.76,0-1.2.18-1.33,1-.18,1.21-.87,1.6-2.08,1.47-1.06-.11-2.14,0-3.43,0,3.13-7.69,6.2-15.26,9.28-22.82Zm1.77,16.26-2-5.66-2,5.66Z"/><path class="a" d="M113.25,53.65h-5.49v8.68h-4.38V40.43h10.86v4.35h-6.41v4.39h5.42Z"/><path class="a" d="M147.88,6.92h4.62V30.69h-4.62Z"/><path class="a" d="M17,60.43c3.24-9.81-5.26-18.26-14.31-15.91,2.49-2.34,8.83-3.08,13.21.91S20.8,56.22,17,60.43Z"/><path class="a" d="M115.83.46c-1.12,1.59-2.09,3-3.09,4.34a.91.91,0,0,1-.63.34c-1.36,0-2.73,0-4.24,0,.57-1.51,1.07-2.9,1.64-4.25a.94.94,0,0,1,.73-.43C112,.45,113.79.46,115.83.46Z"/></svg>