<svg xmlns="http://www.w3.org/2000/svg" viewBox="0 0 250 74.39"><path class="a" d="M122.19,20.21V61.28h-6.47L97,31.15V61.28H90.5V20.21H97l18.75,30.13V20.21Z"/><path class="a" d="M142.65,61.28a15.41,15.41,0,0,1-6.14-1.23,16,16,0,0,1-5-3.38,15.88,15.88,0,0,1-4.61-11.24V29.66h6.32V45.43a9.16,9.16,0,0,0,.75,3.72,9.68,9.68,0,0,0,2,3,8.94,8.94,0,0,0,3,2.05,9.52,9.52,0,0,0,7.36,0,9.53,9.53,0,0,0,3-2,9.19,9.19,0,0,0,2.05-3,9.41,9.41,0,0,0,.74-3.68V29.66h6.33V61.28h-6.33v-3.2a16.85,16.85,0,0,1-4.42,2.34A15.21,15.21,0,0,1,142.65,61.28Z"/><path class="a" d="M175.16,27.28a9.74,9.74,0,0,0-3,2,9.63,9.63,0,0,0-2.05,3,9.11,9.11,0,0,0-.74,3.64v6.33h6.25v6.32h-6.25V61.28H163V36a15.34,15.34,0,0,1,1.72-7.18,15.66,15.66,0,0,1,4.61-5.46,15.41,15.41,0,0,1,9.52-3.13v6.33A9.15,9.15,0,0,0,175.16,27.28Z"/><path class="a" d="M207.74,48.56H189.82a18.31,18.31,0,0,0,.81,1.73,8,8,0,0,0,1.05,1.5,9.62,9.62,0,0,0,11,2.33,8.68,8.68,0,0,0,3.09-2.36h7.44a16,16,0,0,1-5.73,6.88,15.92,15.92,0,0,1-17.56,0,16,16,0,0,1-5.72-6.88,14.32,14.32,0,0,1-.9-2.68c-.1-.6-.18-1.19-.26-1.79a15.77,15.77,0,0,1-.11-1.86,15.41,15.41,0,0,1,1.23-6.14,16,16,0,0,1,3.38-5,16.54,16.54,0,0,1,5-3.42,15,15,0,0,1,6.13-1.26,15.46,15.46,0,0,1,5.47,1,16.52,16.52,0,0,1,4.61,2.64,15.41,15.41,0,0,1,3.46,4,16.83,16.83,0,0,1,2,5c.1.55.17,1.08.22,1.6s.08,1.06.08,1.6,0,1.08-.08,1.6a15.23,15.23,0,0,1-.22,1.53Zm-9-12.65a8.85,8.85,0,0,0-5.5,1.79,9.94,9.94,0,0,0-3.42,4.53h17.92a9.86,9.86,0,0,0-3.45-4.53A9.05,9.05,0,0,0,198.74,35.91Z"/><path class="a" d="M234.23,29.66a15.41,15.41,0,0,1,6.14,1.23,16.14,16.14,0,0,1,5,3.38A15.88,15.88,0,0,1,250,45.51V61.28h-6.32V45.51a9.16,9.16,0,0,0-.75-3.72,9.58,9.58,0,0,0-5.06-5.06,9,9,0,0,0-3.64-.75,9.16,9.16,0,0,0-3.72.75,9.6,9.6,0,0,0-3,2,9.79,9.79,0,0,0-2.05,3,8.94,8.94,0,0,0-.74,3.64V61.28h-6.33V29.66h6.33v3.12a16.17,16.17,0,0,1,4.42-2.3A15.66,15.66,0,0,1,234.23,29.66Z"/><path class="a" d="M35,74.39c-1.55-.79-3.14-1.51-4.63-2.4a24.82,24.82,0,0,1-3.36-2.5A1.9,1.9,0,0,1,26.49,68c0-.28.83-.57,1.3-.61a24,24,0,0,1,3.06,0c1.43.07,1.7-.12,1.64-1.57q-.35-8.64-.75-17.27c-.06-1.4-.18-2.8-.2-4.2a10.62,10.62,0,0,0-1.87-5.87,27.26,27.26,0,0,0-16-11.62,14.33,14.33,0,0,1-2-.55c-.3-.13-.47-.56-.7-.86.33-.17.7-.53,1-.47a74.72,74.72,0,0,1,8.82,2,36.52,36.52,0,0,1,11.64,6.28c.57.47,1.09.57,1.52-.13,4.89-8.09,13-10.73,21.49-12.56,1.41-.3,2.84-.49,4.26-.72.33-.05.78-.15,1,0a2.79,2.79,0,0,1,.92,1.24c.05.16-.57.69-1,.8-3.16.9-6.4,1.57-9.51,2.64a25.91,25.91,0,0,0-12.14,9,8.36,8.36,0,0,0-1.45,5.91.89.89,0,0,0,.46.67,24.65,24.65,0,0,0,4.32.59,3,3,0,0,0,1.86-1.16A14.2,14.2,0,0,1,54,34.3q2.82-.25,5.66-.42c.7,0,1.43,0,1.53,1s-.6,1-1.24,1.18c-1.22.28-2.43.61-3.67.77-5.87.79-11.06,7-11.4,12.33s-.57,10.6-.75,15.9c-.07,2.17.28,2.35,2.46,2.31a10.68,10.68,0,0,1,2.7.28c1.09.26,1.25,1,.48,1.85a3.18,3.18,0,0,1-.79.63c-2.22,1.24-4.42,2.52-6.68,3.65-2,1-2.92.39-2.9-1.89,0-8,.13-15.92.18-23.88a4.8,4.8,0,0,0-.23-1.78c-.15-.38-.66-.61-1-.9a6.32,6.32,0,0,0-.89,1.13,3,3,0,0,0,0,1.13Q37.21,59.5,37,71.44c0,1.1,0,2.23-1.07,3Z"/><path class="a" d="M74.39,31.4c-5.35,4.46-13.64,3-18.48-1.34A11.33,11.33,0,0,1,54,27.69a1.34,1.34,0,0,1,.64-2.16,25.54,25.54,0,0,1,4-1.29c6.56-1.43,11.64,1,15.61,6.14,0,.05.12.07.18.11Z"/><path class="a" d="M0,31.85c2.94-3.47,6.26-4.43,10.17-3,1.51.57,1.64,1,.7,2.28-2.35,3.18-8,3.88-10.87,1.35Z"/><path class="a" d="M33.67,0a7.81,7.81,0,0,1,2.4,7.6,11,11,0,0,1-1.36,3.09c-.84,1.45-1.36,1.45-2.42.2-2.57-3-2-8.57,1.15-10.89Z"/><path class="a" d="M4.45,51C1,51,.25,49.86,1.63,46.71a22.35,22.35,0,0,1,5.44-7.64C9.58,36.77,12.76,36,16,35.5a22.35,22.35,0,0,1,3.84-.1A1.06,1.06,0,0,1,21,36.78a17.24,17.24,0,0,1-.71,3.31C17.61,46.7,10.87,50.69,4.45,51Z"/><path class="a" d="M25.28,22.57a12.35,12.35,0,0,1-8.06-3.16A14.28,14.28,0,0,1,11.85,8.56c0-2.39.91-3.14,3.28-2.77a18.89,18.89,0,0,1,8.39,3.56c2.66,2,3.62,5,4.43,8a14.4,14.4,0,0,1,.43,2.92c.09,1.71-.32,2.12-2,2.28C26,22.55,25.58,22.55,25.28,22.57Z"/><path class="a" d="M54.82,7.39a13,13,0,0,1-2.73,7.21A15.67,15.67,0,0,1,41.8,21.12a5.09,5.09,0,0,1-1.35,0c-1.2-.13-1.81-.64-1.71-1.84a27.54,27.54,0,0,1,.83-4.67c1.66-6.29,6.14-9.49,12.18-10.87C54.22,3.18,54.81,3.81,54.82,7.39Z"/><path class="a" d="M60.9,16.83c-3,0-3.35-.57-2.19-2.76a8.72,8.72,0,0,1,8.12-4.22c1.66.24,2,.83,1.19,2.27C66.34,15.1,64,17,60.9,16.83Z"/><path class="a" d="M24.79,47.6a8.55,8.55,0,0,1-5.36,7.51c-1.52.52-2.08.13-2-1.46.12-3.69,1.67-6.46,5.17-8,1.63-.7,2.08-.44,2.22,1.35C24.8,47.22,24.79,47.41,24.79,47.6Z"/><path class="a" d="M62.81,49a8.7,8.7,0,0,1-7.52-5.35c-.53-1.52-.17-2.07,1.43-2,3.71.07,6.46,1.64,8,5.13.72,1.67.5,2.07-1.31,2.24C63.17,49,62.94,49,62.81,49Z"/><path class="a" d="M35.82,26.59c-.07,2.59-1.47,4.59-3.19,4.56a4.86,4.86,0,0,1-4.32-4.52c0-1.81,2.07-3.56,4.08-3.53A3.43,3.43,0,0,1,35.82,26.59Z"/><path class="a" d="M39.15,36.43c0-1.9.88-3,2.5-3a2.82,2.82,0,0,1,2.69,3c0,1.92-1.15,3.32-2.81,3.31C40.05,39.81,39.17,38.56,39.15,36.43Z"/></svg>