<svg xmlns="http://www.w3.org/2000/svg" viewBox="0 0 48 48"><path class="svg" d="M47.13,17.41c-.14.62-.27,1.2-.42,1.77A48.25,48.25,0,0,1,43.61,28a30.11,30.11,0,0,1-5,7.66,19.49,19.49,0,0,1-7.87,5.29l-1,.31-1,.28c-.56-.75-1.15-1.47-1.66-2.24s-.42-.76.35-1.08a34.87,34.87,0,0,0,5.94-3,27.48,27.48,0,0,0,3.33-2.75,29.68,29.68,0,0,0,4.15-4.73,18.45,18.45,0,0,0,2.36-4.64c.18-.51.39-1,.53-1.53a1.71,1.71,0,0,0-.18-1.24,1.9,1.9,0,0,0-.56,1,17.45,17.45,0,0,1-2.67,5.79A25.87,25.87,0,0,1,30.66,36c-1.23.67-2.52,1.22-3.79,1.83a.35.35,0,0,1-.38,0,4.67,4.67,0,0,1-1.87-2.22c-.12-.25-.23-.51-.36-.8a23.31,23.31,0,0,0,13.68-14,.91.91,0,0,0-1,.51,21.79,21.79,0,0,1-4.52,7.07A26.8,26.8,0,0,1,25,33.78a5.08,5.08,0,0,1-.85.31.89.89,0,0,1-1-.41c-.46-.74-.9-1.49-1.36-2.26l.26-.14a24,24,0,0,0,6-4.39,17.15,17.15,0,0,0,3.85-6c0-.06,0-.11.05-.16a1.23,1.23,0,0,0-1.15.87,15.3,15.3,0,0,1-5.81,7c-.83.59-1.71,1.11-2.57,1.66a1.84,1.84,0,0,1-.57.2.93.93,0,0,1-.92-.42c-.38-.48-.73-1-1.09-1.47-.13-.18-.27-.34-.4-.52a.45.45,0,0,1,.15-.74,1.62,1.62,0,0,1,.35-.17,8.94,8.94,0,0,0,3.76-2.65c.5-.56,1-1.14,1.43-1.75a2.82,2.82,0,0,0,.53-2c-.27.26-.6.36-.72.75a6.42,6.42,0,0,1-2,2.85,18.77,18.77,0,0,1-2.84,2.1c-.83.51-1.16.46-1.83-.25a12.55,12.55,0,0,1-.93-1.12c-.36-.47-.31-.73.19-1s1.05-.59,1.56-.93a3.14,3.14,0,0,0,1.4-1.81c0-.12.05-.25.07-.37a.68.68,0,0,0,0-.15l-.73.69a10.65,10.65,0,0,1-2.09,1.7,3.79,3.79,0,0,1-.74.33,1,1,0,0,1-1.16-.4c-.16-.22-.29-.47-.44-.71A4.54,4.54,0,0,0,14,20.9l-.31-.2c-.09.39-.16.76-.25,1.12a15.1,15.1,0,0,1-1.51,3.59C11,27,10.17,28.54,9.24,30.06c-.53.87-1.18,1.67-1.81,2.54-.11-.16-.2-.27-.27-.38-.69-1.2-1.39-2.4-2.09-3.59a.32.32,0,0,1,0-.36c.55-.95,1.08-1.91,1.61-2.87.37-.67.73-1.35,1.06-2a2.69,2.69,0,0,0,.08-2.29l-.1.22c-.43,1.1-.83,2.2-1.28,3.29a11.67,11.67,0,0,1-.74,1.34c-.35.57-.72,1.14-1.11,1.75A53.35,53.35,0,0,1,1,17.43H6.62l0-.06-3.24-3L1.75,16.44h.9l1.16,0A.76.76,0,0,0,4,16.32a.51.51,0,0,0-.16-.09L2.63,16l.8-1.14L5.66,17,4.53,17l-3.44.07C1,17.07.94,17,.94,17s0-.28,0-.37c.25-.36.53-.7.81-1l1.51-1.93L7.57,17l4.26-4.77H3.18l4,3.17L9.31,13.2H8.85l-2.16.09a1.54,1.54,0,0,0-.19.08c.07,0,.13.09.2.09H8.47L7.24,14.83l-3-2.21h6.63L7.57,16.49,3.23,13.1.76,16.23c-.09-.38-.17-.71-.22-1.05,0-.07.07-.18.13-.25.75-.83,1.49-1.66,2.23-2.5l.23-.26H.21c-.15,0-.25,0-.19-.22H48c0,.14,0,.14-.67.24a4.72,4.72,0,0,0,.47.37.29.29,0,0,1,.12.32c0,.18-.06.36-.09.58l-.47-.37L44,17.41Zm-8.54-3.74L42.88,17l4.25-4.77H38.48l4,3.18,2.11-2.19-.8,0c-.62,0-1.24,0-1.86.08-.05,0-.1,0-.16.08s.11.08.16.08l1,0h.89l-1.27,1.4-3-2.21h6.62l-3.29,3.87L38.53,13.1l-3.39,4.3H42L38.7,14.33l-1.65,2.11h.15l1.91,0a.87.87,0,0,0,.17-.07l-.16-.11a.5.5,0,0,0-.12,0L37.94,16c.28-.4.53-.76.8-1.13L41,17l-5,.11Zm-21.1,3.72h6.83l-3.27-3.06-1.63,2.08h2c.07,0,.13-.05.2-.07a.52.52,0,0,0-.19-.11L20.28,16l.81-1.14L23.32,17l-5.05.11,2.67-3.41L25.23,17c1.42-1.59,2.82-3.17,4.25-4.76H20.84l4,3.17L27,13.18l-.78,0-1.83.07a.66.66,0,0,0-.19.09l.2.08s0,0,.07,0h1.71l-1.25,1.38-3-2.2h6.62c-1.12,1.3-2.2,2.58-3.29,3.86L20.88,13.1C19.74,14.54,18.63,16,17.49,17.39Zm-4.43-4.76h6.62L16.4,16.49,12.05,13.1,8.67,17.4H15.5l-3.27-3.07-1.65,2.11h.72l1.37,0a.5.5,0,0,0,.14-.08l-.12-.09a.76.76,0,0,0-.16,0L11.46,16l.8-1.14L14.5,17l-5.05.11,2.66-3.41L16.4,17l4.25-4.76H12l4,3.14,2.17-2.16-2.73.12s-.08,0-.12.08a.42.42,0,0,0,.12.08.92.92,0,0,0,.16,0H17.3l-1.24,1.38Zm24.28,0L34,16.49,29.71,13.1l-3.4,4.3h6.85l-3.28-3.07-1.63,2.08h2a1.13,1.13,0,0,0,.24-.08l-.23-.11h-.07L29.11,16c.27-.4.53-.76.8-1.14L32.15,17l-5,.11c.91-1.16,1.78-2.27,2.66-3.41L34.05,17,38.3,12.2H29.66l4,3.16L35.8,13.2h0l-2.67.1a.77.77,0,0,0-.16.07v.07h2l-1.26,1.4-3-2.21Z"/><path class="svg" d="M14.19,22.12c.42.52.85,1,1.22,1.51,1.47,2.05,2.92,4.12,4.37,6.19.86,1.21,1.7,2.44,2.53,3.67.34.49.63,1,1,1.5s.83,1,1.23,1.58.85,1.16,1.27,1.75c.17.24.3.51.47.76l1.62,2.44.11.17c-.45.07-.87.16-1.3.19-1,.07-2,.11-3,.16a.31.31,0,0,1-.3-.15c-2.34-3.16-4.7-6.3-7-9.47-1.24-1.68-2.41-3.42-3.61-5.13l-.13-.2a1.23,1.23,0,0,1-.07-1.38c.55-1.08,1-2.2,1.53-3.31Z"/><path class="svg" d="M11.88,27.32c.2,0,.28.18.38.34a18.81,18.81,0,0,0,1.11,1.77c1.85,2.55,3.73,5.07,5.57,7.62,1.12,1.54,2.19,3.12,3.28,4.68l.16.26c-.46-.05-.87-.09-1.28-.15A17.66,17.66,0,0,1,15.45,40a1.07,1.07,0,0,1-.31-.29c-1.23-1.71-2.45-3.43-3.69-5.13-.63-.87-1.31-1.7-2-2.53a.4.4,0,0,1-.09-.4,8.66,8.66,0,0,1,1.3-2.55Z"/><path class="svg" d="M13.82,39a22.05,22.05,0,0,1-6-5.86L8,32.92l.79-.84C10.46,34.4,12.14,36.7,13.82,39Z"/><path class="svg" d="M45.88,16.44H47.3s0,0,0,0c-.08.52-.08.53-.6.55l-1.75,0h-.2l2.63-3.37c.4.18.41.2.3.68-.09,0-.2,0-.24,0Z"/><path class="svg" d="M.43,14.64c-.07-.34-.13-.64-.18-1,0,0,.07-.13.11-.18s.19-.18.33-.31H.16c0-.21,0-.39-.08-.58H2.15Z"/><path class="svg" d="M47.61,14.92c-.07.4-.14.79-.22,1.2L46.76,16l.78-1.11Z"/></svg>