<svg xmlns="http://www.w3.org/2000/svg" viewBox="0 0 48 48"><path class="svg" d="M22.61,48c-1-.51-2-1-3-1.55a14.85,14.85,0,0,1-2.16-1.62,1.17,1.17,0,0,1-.37-.94c0-.17.54-.36.84-.39a16.36,16.36,0,0,1,2,0c.92.05,1.09-.07,1.06-1-.15-3.71-.32-7.43-.49-11.14,0-.91-.12-1.81-.13-2.71a6.8,6.8,0,0,0-1.21-3.79,17.54,17.54,0,0,0-10.33-7.5A9.17,9.17,0,0,1,7.54,17c-.19-.09-.3-.37-.45-.56.21-.11.45-.34.64-.3a47.43,47.43,0,0,1,5.69,1.31,23.58,23.58,0,0,1,7.51,4.05c.37.3.71.37,1-.08,3.15-5.22,8.36-6.92,13.87-8.11.9-.19,1.83-.32,2.75-.46.21,0,.5-.1.63,0a1.78,1.78,0,0,1,.6.79c0,.11-.37.45-.62.52-2,.58-4.13,1-6.13,1.71a16.61,16.61,0,0,0-7.84,5.82,5.46,5.46,0,0,0-.94,3.82c0,.15.18.4.3.42a15.74,15.74,0,0,0,2.79.39,2,2,0,0,0,1.2-.75,9.16,9.16,0,0,1,6.32-3.46c1.22-.11,2.43-.2,3.65-.27.45,0,.93,0,1,.62s-.38.68-.8.77c-.78.18-1.57.39-2.37.5-3.79.5-7.14,4.48-7.35,8s-.37,6.84-.49,10.26c0,1.4.19,1.52,1.59,1.49a6.77,6.77,0,0,1,1.74.18c.7.17.81.66.31,1.19a1.84,1.84,0,0,1-.51.41c-1.43.8-2.85,1.63-4.31,2.36-1.29.64-1.88.24-1.87-1.22,0-5.14.08-10.28.12-15.41a3.11,3.11,0,0,0-.15-1.15c-.1-.24-.43-.39-.66-.58a4.43,4.43,0,0,0-.58.73,2.18,2.18,0,0,0,0,.73C24,35.82,24,41,23.88,46.09c0,.71,0,1.44-.69,1.91Z"/><path class="svg" d="M48,20.26c-3.45,2.88-8.8,1.92-11.93-.86a7.31,7.31,0,0,1-1.23-1.53.87.87,0,0,1,.41-1.4,16.62,16.62,0,0,1,2.56-.83c4.23-.92,7.51.62,10.07,4a.29.29,0,0,0,.12.07Z"/><path class="svg" d="M0,20.55c1.9-2.24,4-2.86,6.56-1.9,1,.37,1.06.64.45,1.47A5.19,5.19,0,0,1,0,21Z"/><path class="svg" d="M21.72,0a5,5,0,0,1,1.55,4.91,7,7,0,0,1-.87,2c-.55.93-.88.93-1.57.13a5.2,5.2,0,0,1,.75-7Z"/><path class="svg" d="M2.87,32.88c-2.22,0-2.71-.71-1.82-2.74a14.58,14.58,0,0,1,3.51-4.93,10.42,10.42,0,0,1,5.77-2.31,14.54,14.54,0,0,1,2.47-.06.69.69,0,0,1,.72.89,11.63,11.63,0,0,1-.46,2.14A11.63,11.63,0,0,1,2.87,32.88Z"/><path class="svg" d="M16.31,14.56a8,8,0,0,1-5.2-2,9.21,9.21,0,0,1-3.46-7c0-1.54.58-2,2.11-1.78A12.07,12.07,0,0,1,15.17,6c1.72,1.28,2.34,3.2,2.86,5.15a9.18,9.18,0,0,1,.28,1.88c.06,1.1-.2,1.37-1.32,1.47Z"/><path class="svg" d="M35.37,4.77a8.44,8.44,0,0,1-1.76,4.65A10.08,10.08,0,0,1,27,13.62a3.16,3.16,0,0,1-.87,0c-.78-.08-1.17-.41-1.1-1.18a17.21,17.21,0,0,1,.53-3c1.07-4.06,4-6.12,7.86-7C35,2.05,35.37,2.46,35.37,4.77Z"/><path class="svg" d="M39.29,10.86c-1.93,0-2.16-.37-1.41-1.78a5.6,5.6,0,0,1,5.24-2.72c1.07.15,1.29.53.77,1.46C42.8,9.74,41.28,11,39.29,10.86Z"/><path class="svg" d="M16,30.71a5.51,5.51,0,0,1-3.45,4.85c-1,.33-1.35.08-1.31-.94a5.31,5.31,0,0,1,3.33-5.15c1-.45,1.34-.28,1.43.88C16,30.47,16,30.59,16,30.71Z"/><path class="svg" d="M40.53,31.61a5.61,5.61,0,0,1-4.85-3.46c-.35-1-.11-1.33.92-1.31a5.24,5.24,0,0,1,5.15,3.31c.47,1.07.32,1.33-.85,1.44Z"/><path class="svg" d="M23.11,17.15c-.05,1.68-.95,3-2.06,3a3.13,3.13,0,0,1-2.78-2.92A2.66,2.66,0,0,1,20.9,14.9,2.22,2.22,0,0,1,23.11,17.15Z"/><path class="svg" d="M25.26,23.5c0-1.22.57-1.91,1.61-1.92a1.83,1.83,0,0,1,1.74,2,1.91,1.91,0,0,1-1.81,2.14C25.84,25.68,25.27,24.88,25.26,23.5Z"/></svg>