<svg xmlns="http://www.w3.org/2000/svg" viewBox="0 0 48 48"><path d="M24,0A24,24,0,1,0,48,24,24,24,0,0,0,24,0Zm5.65,16.36v-.68l0-.33,0-.31,0-.32,0-.3,0-.29.05-.27.05-.28.06-.26.07-.25.07-.24.08-.24.07-.21.09-.23.09-.2.08-.21.1-.19.1-.2.09-.18.11-.18.12-.18.1-.17.12-.17.13-.16.13-.17.12-.14.12-.15.15-.15.13-.14.15-.13.15-.15.15-.12L32.67,9l.16-.13L33,8.77l.18-.11.17-.12.19-.11.18-.11.2-.11.19-.11L34.3,8l.2-.1.22-.08.19-.09.22-.08.2-.07.21-.06.2-.06.2,0,.19-.07.2,0,.17,0,.18,0,.15,0,.15,0,.15,0,.14,0,.14,0,.12,0,.12,0,.11,0,.12,0,.12,0,.1,0,.12,0,.1,0,.11,0,.11,0-.06.48-.08.48-.08.48-.09.46L38.14,9l-.1.42-.09.4-.09.39-.11.32-.1.33-.09.29-.1.28-.11.24-.09.24-.11.22-.09.21-.11.18-.11.2-.1.18-.1.17-.11.16-.11.16-.11.15-.12.14-.12.16L36,14l-.11.14-.13.13-.12.12-.13.12-.14.13-.14.12-.15.11-.15.11-.15.11-.16.12-.16.1-.16.11-.18.1-.18.11-.2.09-.19.11-.22.1-.21.09-.23.1-.22.1-.26.08-.26.1-.27.08-.29.08-.3.1-.3.08-.31.08-.32.07L30,17l-.33.07v-.68Zm-8.8-7.51v-.7l0-.18,0-.2,0-.19,0-.19.05-.2,0-.21.06-.22.07-.24.07-.24.1-.27.13-.28.13-.31.17-.34L22,4.72l.23-.41.23-.41.27-.42L23,3l.28-.46.31-.45.32-.44.25.41.26.43.25.41.22.42.23.39.19.38.2.37.16.34.15.32.13.3.1.25.1.25.08.25.07.2.06.22.05.19,0,.19,0,.19,0,.18,0,.18,0,.16,0,.17V9.18l0,.16,0,.17,0,.16,0,.16,0,.16,0,.17-.05.18-.05.18-.06.18-.06.18-.08.2-.08.19-.08.21-.09.2-.12.23-.11.23-.12.24-.14.25-.15.26-.15.27-.18.29-.18.28-.19.29-.19.3-.21.31-.2.28-.24-.22-.23-.22-.24-.22L23,14l-.22-.24-.19-.22-.19-.24-.15-.21-.16-.24-.14-.2-.12-.22-.12-.2L21.65,12l-.1-.19-.07-.2-.1-.18-.06-.2-.07-.17-.05-.19-.06-.18-.05-.17,0-.17,0-.17L21,10l0-.17,0-.18,0-.16,0-.17V8.85Zm-11.78-2h.18l.11,0,.12,0,.13,0,.15,0,.17,0,.19,0,.22,0,.23.07.25.07.25.08.27.09.28.11.28.09.26.11.28.13.27.14.27.13.26.13.25.14.24.14.22.15.22.13.2.14.19.14.19.13.17.14.16.14.15.14.15.15.15.13.13.14.12.14.13.14.11.14.12.16.12.14.1.15.1.16.1.16.1.17.09.16.09.17.08.18.1.19.08.2.08.19.07.22.07.21.07.25.08.25.06.25.06.29.06.3.05.32.06.32,0,.36,0,.36,0,.37,0,.39,0,.38,0,.38,0,0v0h-.09l-.17,0-.31-.08-.22-.06L16.87,17l-.3-.09-.32-.1-.33-.09-.34-.12-.33-.11-.32-.12-.29-.11-.28-.12L14.11,16l-.23-.1-.23-.13-.2-.11-.2-.12-.18-.11-.19-.11-.16-.11-.17-.13L12.4,15l-.15-.11-.14-.12L12,14.61l-.13-.13-.13-.13-.12-.11-.11-.14L11.35,14l-.11-.13-.1-.13L11,13.56l-.11-.13-.1-.16-.09-.15-.1-.16-.1-.17-.1-.16-.08-.18-.09-.19-.1-.19-.08-.2L10,11.65l-.08-.21-.09-.25-.08-.26-.08-.26-.08-.3-.07-.32L9.43,9.7l-.08-.36L9.27,9l-.06-.39-.07-.41-.06-.42L9,7.3,9,6.87Zm-5,15.89-.29-.22-.32-.24L3.14,22l-.35-.29-.35-.29-.36-.33-.36-.32-.36-.34.16-.11.15-.1.17-.11L2,20,2.15,20l.17-.09.16-.1.17-.09.17-.09L3,19.5l.18-.07.17-.09.19-.07.16-.07.19-.06.18-.06.18,0L4.41,19l.17,0,.19-.05.37-.08.36-.07.36-.06.37,0,.34-.06.36,0,.34,0H8l.32,0,.3,0,.3,0,.14,0,.14,0,.13,0,.14,0,.12,0,.12,0,.11,0,.13,0,.22.09.22.1.22.1.21.11.21.12.22.13.23.12.21.14.24.14.21.14.23.16.21.13.21.14.19.15.18.12.16.12.16.12.14.11.12.12.13.1.1.1.1.09.16.17.15.15.06.08.06.07.05.07.05.08.06.08,0,.07,0,.08,0,.07,0,.08,0,.07,0,.1,0,.08-.27.13-.27.14-.28.13-.27.11-.26.11-.27.12-.25.11-.26.09-.25.08-.24.1L12,24l-.23.07-.24.07-.23.06-.23.07-.24.05-.25.07-.24,0-.24.05-.25.05-.24,0-.24,0-.23,0H8.49l-.18,0-.2,0-.18,0-.19,0-.17-.05-.18,0-.18-.06L7,24.25l-.19-.06-.17-.07-.18-.05L6.31,24l-.19-.07-.18-.08-.2-.09-.19-.1-.22-.1-.21-.11-.24-.14-.23-.15L4.38,23ZM15.53,30.3l-.15.2-.15.23-.17.25-.21.29-.22.3-.25.31-.26.34-.25.33-.3.35-.28.33-.16.15-.18.14-.18.14-.18.13-.17.14-.17.12-.18.11-.16.12-.17.1-.16.09-.16.09-.17.09-.15.07-.16.08-.16.07-.15.06-.17.06-.17.07-.17.06-.18.05-.21,0-.21.05-.26,0-.27,0-.29,0-.32,0-.33,0-.34,0-.34,0H7.05l-.32,0H5.3l-.11,0H5.1l-.15,0H4.78l-.06,0H4.65l-.08,0-.07,0H4.43v-.18l0-.19,0-.19,0-.22,0-.1,0-.11,0-.11,0-.13L4.82,34l.06-.13.06-.15L5,33.57l.08-.15.09-.17.1-.17.12-.18.12-.19.13-.2.16-.2L6,32.08l.18-.22.2-.25.21-.24.23-.24L7,30.9l.22-.22.23-.22.22-.2.12-.09.1-.09L8,30l.11-.08.21-.15.21-.12.21-.11.2-.1.22-.11.2-.09.22-.08.22-.09.24-.09.27-.08.13,0,.16,0,.15,0,.16,0,.37-.05.41-.07.22,0,.24,0,.25,0,.25,0,.27,0,.28,0,.29,0,.29,0h.91l.32,0h1.27l0,.12,0,.13,0,.12,0,.12,0,.14,0,.12-.05.13-.05.12,0,.13-.07.13-.07.14-.09.16-.09.16ZM22,37.12v.56l0,.18,0,.16,0,.15,0,.16,0,.15,0,.16,0,.15-.05.14,0,.15,0,.15-.05.15-.05.14,0,.14-.07.16-.07.14-.06.14-.08.15-.07.15-.08.15L21,40.7l-.1.16-.1.16-.09.15-.11.15-.13.18-.12.16-.13.19-.15.17-.15.2-.17.18-.18.19-.19.21-.21.21-.22.2-.22.22-.23.19-.23.21-.21.18-.19.17-.19.15-.27.24-.22.18-.16.12-.13.08-.1.08-.11.06-.12.06-.1,0L16.39,45l-.09-.18-.08-.19-.09-.21,0-.11,0-.12,0-.12L16,44l0-.15,0-.15,0-.15,0-.18,0-.17,0-.2,0-.18,0-.22,0-.21,0-.23V40l0-.29,0-.29,0-.29,0-.29,0-.27.05-.26,0-.26.05-.26,0-.12,0-.11,0-.11,0-.13,0-.1,0-.1.05-.11,0-.1.1-.19.1-.18.13-.18.12-.19L16.9,36l.15-.19.15-.18.16-.2.18-.19L17.7,35l.19-.2.17-.18.18-.19.17-.17.17-.16.18-.16.16-.16.17-.13.15-.13.15-.12.15-.11.13-.1.14-.1.12-.07.11-.09.12-.06.2-.11.19-.1.17-.06.15-.08.16,0,.14,0,.11.46.11.46.12.44.09.45.08.42.08.4.07.38.05.35.05.3,0,.29,0,.27v.44Zm2-4.94A8.17,8.17,0,1,1,32.16,24,8.18,8.18,0,0,1,24,32.18Zm8.79,8.16,0,.38,0,.42-.05.45-.07.46-.06.47-.07.45-.07.44-.06.37-.06.33-.08.44,0,.24,0,.09h0l-.36-.26-.38-.26L31,44.1l-.32-.26-.33-.27L30,43.31l-.29-.23-.27-.25-.25-.22L29,42.39l-.21-.2-.19-.2-.16-.18-.15-.18-.15-.17L28,41.28l-.12-.17-.13-.17-.1-.16-.1-.15-.1-.16-.09-.16-.09-.16L27.19,40l-.08-.15L27,39.68,27,39.53l-.06-.15-.06-.16-.05-.16-.05-.16,0-.16-.05-.18,0-.17,0-.17,0-.19,0-.16,0-.2,0-.2v-.2l0-.21v-.69l0-.27v-.25l0-.3,0-.31,0-.33.06-.35.07-.35.06-.39.08-.38.08-.39.1-.4.09-.39h.17l.08,0,.12,0,.11.06.13.08.16.08.18.13.2.13.23.16.24.19.27.2.25.21.26.21.25.22.27.23.24.21.23.23.22.21.2.21.19.21.19.22.19.22.18.21.07.14.1.15.07.15.08.14.06.15.07.16.07.15.06.16.06.16.05.17,0,.16,0,.18.05.18,0,.17.05.19,0,.19,0,.2,0,.2,0,.23,0,.25v.91Zm10.85-5.25-.26,0h-.25l-.24,0-.22,0h-.58l-.26,0h-1.4l-.2,0H40l-.24,0-.24,0-.24,0-.24,0-.25,0-.24,0-.23,0-.21,0-.21-.05-.2-.06-.18-.05-.19,0-.17-.06L37,34.54l-.16-.07-.15,0-.15-.08-.15-.07-.15-.06-.15-.08L36,34,35.81,34l-.14-.09-.13-.09-.13-.1-.13-.09-.13-.09L35,33.38l-.14-.1-.13-.12L34.62,33l-.14-.14-.14-.14-.15-.17L34,32.41l-.16-.2L33.7,32l-.17-.26-.2-.28-.21-.31-.2-.33-.22-.36-.22-.37-.22-.39-.23-.4-.2-.4.13-.07.14-.06.14-.05.14-.06.14-.07.15,0,.14-.05.15,0,.16,0,.15,0,.15,0,.16,0,.15,0h.32l.17,0h1.33l.17,0,.17,0,.17,0,.17,0,.17,0,.17,0,.18.05.18.05.18,0,.16.06.17.07.18.05.16.06.18.06.16.07.18.07.16.08.17.07.16.09.16.07.16.1.16.08.16.1.15.08.14.09.16.12L40,30l.14.1.15.12.13.1.13.1.15.11.26.23.25.23.25.25.22.25.24.25.21.27.22.26.19.25.19.26.17.26.17.24.14.24.12.21.12.22.1.18.08.2.08.19.05.19.07.17,0,.19ZM45.9,20.4l-.3.29-.29.27-.28.27-.29.26-.27.23-.26.23-.25.19-.24.19-.23.16-.22.15-.21.13-.21.12-.18.12-.2.1-.19.1-.2.1-.16.08-.2.09-.18.07-.19.08-.17.06-.19.06-.18.06-.18.06-.2.06-.18,0-.2.05-.19,0-.19,0-.2,0-.2,0-.19,0-.18,0-.19,0h-.9l-.18,0-.17,0-.17,0-.16,0L37,24,36.8,24l-.17,0-.19,0-.18-.06-.19-.07-.19-.05-.21-.07-.21-.07-.23-.08L35,23.43l-.25-.11-.25-.1-.24-.11L34,23l-.27-.12-.25-.13-.28-.13-.27-.15.18-.23.18-.24.19-.23.19-.22.18-.22.18-.2.2-.2.18-.19.17-.18.18-.17.17-.14.18-.16.17-.13.17-.13.17-.13.16-.12.16-.1.15-.11.17-.09.16-.1.15-.08.17-.08.15-.09.17-.07.16-.06.16-.07.17-.06.16-.07.17-.05.16-.05.18,0,.17-.05.17,0,.19,0,.18,0,.19,0,.19,0,.2,0h1.12l.26,0,.28,0,.31,0,.32.06.37.05.38.08.43.1.45.1.46.11.46.14.49.14.49.15.5.16.66.38-.29.31Z"/><path d="M29.9,27l.05-.13.06-.14.06-.12,0-.13.05-.13.05-.13,0-.14,0-.13,0-.13,0-.2,0-.18v-.2l0-.17V23.78l0-.18,0-.18,0-.19,0-.18,0-.18,0-.15-.05-.16-.06-.14,0-.06,1.11-.81H29.71l-.08-.11-.08-.14-.08-.13-.11-.11-.09-.14-.1-.11-.11-.11-.13-.12-.11-.12-.13-.12-.14-.1-.12-.11-.14-.1-.15-.1L28,19.86l-.14-.1-.15-.08-.15-.08-.15-.06-.16-.07-.16,0-.16-.06-.15-.05-.19,0-.19,0-.18,0-.19,0-.19,0-.19,0h-.73l-.9-2.8-1.12,3.5,0,0-.12.09-.11.1-.12.11-.1.11-.11.12-.11.11-.09.14-.09.12-.08.13-.1.15-.08.14-.08.15-.07.15,0,.07H18.66l0-.08.08-.27.08-.28.09-.25.11-.26.09-.26.12-.26.11-.26.07-.14.09-.15.07-.15.1-.13.09-.15.1-.13.1-.13.1-.14.09-.11.09-.1.1-.1.09-.11.2-.18.21-.19.11-.1.12-.09.12-.09.11-.1.12-.08.12-.09.12-.08.13-.08.13-.08.13-.08.12-.08.14-.06.13-.08.13-.07.14-.06.15-.06.21-.07.21-.07.2,0,.18-.05.16,0,.12,0,.08,0h-.87l-.1,0-.11,0-.23.07-.24.07-.22.07-.24.08-.22.09-.23.1-.1,0-.11.06-.11.06-.1.05-.22.14-.21.15-.21.15-.19.17-.19.17-.19.19-.18.18-.17.19-.18.24-.18.25-.17.25-.17.25-.08.13-.07.13-.07.13-.07.13-.07.14-.06.14-.06.13-.05.15-.06.16-.06.17-.06.16-.05.17-.05.17,0,.18,0,.17,0,.08H16.85l1,.74v.06l0,.17v1.22l0,.18,0,.16,0,.18,0,.17,0,.16,0,.18.05.16,0,.18.06.16.05.17.06.16.07.15.06.18.08.17.07.17.09.17.07.17.09.16.09.15.1.15.1.15.09.16.11.14.11.15.12.14.11.13.12.12.15.13.13.13.09.08L19.58,30,21,29h0l.17.1.17.08.18.09.18.09.18.09.18.07.19.07.19.06.17.07.18.05.17,0,.18.05.18,0,.18,0,.17,0,.19,0L24,30h.18l.19,0H25.6l.13,0h.15L26,30l.13,0,.13,0,.12,0,.13,0,.13-.05.13,0,.13-.05.12-.06.12,0,.12-.06.11-.06.13-.06.09-.06.85.62-.31-1h0l.13-.1.12-.09.12-.1.11-.09.11-.11.12-.1.1-.11.11-.11.11-.12.09-.12.09-.11.1-.11.07-.12.09-.11.07-.13.07-.11.07-.12Zm-4.63-7.23h.63l.16,0,.15,0,.16,0,.14,0,.16,0,.14.05.13,0,.15.06.14.07.13.07.15.08.14.1.14.1.14.11.13.12.12.12.14.13.11.12.13.13.12.13.1.15v0H25.71l-.57-1.75Zm-2.92,1.67,0-.1v0l-.07.2h0Zm-2.06,6.18-.16-.16L20,27.32l-.14-.17L19.7,27l-.13-.18-.12-.18-.12-.2-.1-.2-.1-.21-.08-.21L19,25.57l-.08-.21-.06-.22-.08-.22,0-.19,0-.2-.06-.18,0-.21,0-.19,0-.2,0-.2,0-.2v-.63l2.83,2.06-1,2.92ZM27,29,26.9,29l-.12,0-.11.05-.12.05-.12,0-.11,0-.13,0-.12,0-.13,0-.15,0-.12,0-.14,0h-.15l-.13,0H24.4l-.29,0-.27,0h-.13l-.12,0-.13,0-.14,0-.24-.06-.26-.1-.25-.1-.24-.09-.25-.11-.25-.1-.16-.09-.09,0L24,26.76l3,2.18Zm2.77-4.29v.44l0,.15,0,.14,0,.15,0,.14,0,.15,0,.14,0,.14,0,.14,0,.14,0,.13-.08.14-.05.13-.07.12-.06.13-.07.1-.07.11-.09.11-.08.11-.09.1-.08.11-.11.09-.09.1-.09.1-.11.09-.21.19-.15.12-1-2.94.05-.09.06-.1.05-.12.06-.13,0-.12,0-.12,0-.13,0-.13,0-.13,2.18-1.58v0l0,.13,0,.14,0,.13,0,.14,0,.14,0,.14,0,.14,0,.16v.73Z"/></svg>