<svg xmlns="http://www.w3.org/2000/svg" viewBox="0 0 250 113.01"><path class="svg" d="M138.36,3.17A6.36,6.36,0,0,0,132.85,0h-19a6.45,6.45,0,0,0-5.51,3.17L98.8,19.7a6.38,6.38,0,0,0,0,6.33l9.55,16.53a6.38,6.38,0,0,0,5.51,3.16h19a6.45,6.45,0,0,0,5.51-3.16L148,26a6.43,6.43,0,0,0,0-6.33Zm-2.05,20.69-18.7,10.9c-.76.41-1.87.12-1.87-.76V11.72c0-.88,1.11-1.17,1.87-.76l18.64,10.91A1.13,1.13,0,0,1,136.31,23.86Z"/><path class="svg" d="M35,65.3h9.27l8.21,27.28L60.69,65.3H70L57.89,102.39H47.08Z"/><path class="svg" d="M96.18,75.9l-9.05,25.69C84.16,110,79.44,113.35,72,113v-7.42c3.71,0,5.45-1.16,6.62-4.39L68.11,75.9h8.74l5.88,16.21,5-16.21Z"/><path class="svg" d="M124.42,65.3v37.09h-8V99.9a10,10,0,0,1-7.89,3.23c-6.94,0-12.66-6.1-12.66-14s5.72-14,12.66-14a9.92,9.92,0,0,1,7.89,3.23V65.3Zm-8,23.84a6.31,6.31,0,1,0-6.3,6.46A6,6,0,0,0,116.47,89.14Z"/><path class="svg" d="M142.91,96A6.93,6.93,0,0,0,148,94l6.36,3.65c-2.6,3.6-6.52,5.46-11.55,5.46-9.06,0-14.68-6.1-14.68-14s5.73-14,14.1-14c7.73,0,13.45,6,13.45,14a14.91,14.91,0,0,1-.32,3.18h-18.8C137.55,95.07,140,96,142.91,96Zm4.87-9.64a5.45,5.45,0,0,0-5.62-4.19c-3,0-5,1.49-5.77,4.19Z"/><path class="svg" d="M157.79,89.14a14,14,0,1,1,14,14A13.88,13.88,0,0,1,157.79,89.14Zm20.13,0a6.09,6.09,0,1,0-6.09,6.25A5.94,5.94,0,0,0,177.92,89.14Z"/><path class="svg" d="M215,86.12v16.27h-7.95V87.29c0-3.29-2.06-4.82-4.6-4.82-2.92,0-4.93,1.69-4.93,5.45v14.47h-8V75.9h8v2.49c1.43-2,4.08-3.23,7.57-3.23C210.44,75.16,215,79,215,86.12Z"/></svg>