<svg xmlns="http://www.w3.org/2000/svg" viewBox="0 0 250 50.74"><path class="svg" d="M97.47,42.44,121.61,12.9H98V4h37.12V11.5L111.07,41h24.35v8.84H97.58Z"/><path class="svg" d="M165,39l6.21,6.35c-3.07,3.18-9,5.29-14.09,5.29-10.28,0-18.29-7.55-18.29-18.15,0-10.41,7.67-18,17.75-18,10.83,0,17.17,8.21,17.17,21.17H148.84A8.38,8.38,0,0,0,157.06,42,12.53,12.53,0,0,0,165,39ZM149,28.79H164.4A7.19,7.19,0,0,0,157,23.18,8.35,8.35,0,0,0,149,28.79Z"/><path class="svg" d="M177.94,5.29a5.3,5.3,0,1,1,5.3,5.3A5.29,5.29,0,0,1,177.94,5.29Zm.4,10.08h9.74V49.85h-9.74Z"/><path class="svg" d="M215,47.73a12.6,12.6,0,0,1-7.94,3c-6.08,0-10.35-4.34-10.35-10.59V23.25H192V15.37h4.74V5.9h9.34v9.53h7.48V23.3h-7.48V38.66c0,2.26,1.47,3.86,3.27,3.86a5,5,0,0,0,3.34-1.14Z"/><polygon class="svg" points="69.42 9.73 57.95 21.2 46.48 9.73 35 21.2 40.74 26.94 46.48 21.2 57.95 32.67 75.16 15.46 80.89 21.2 80.89 3.99 63.68 3.99 69.42 9.73"/><rect class="svg" x="35" y="32.68" width="11.48" height="17.21"/><rect class="svg" x="69.42" y="26.94" width="11.48" height="22.94"/><rect class="svg" x="52.21" y="38.41" width="11.48" height="11.48"/></svg>