<?xml version="1.0" encoding="UTF-8" ?>
<!DOCTYPE svg PUBLIC "-//W3C//DTD SVG 1.1//EN" "http://www.w3.org/Graphics/SVG/1.1/DTD/svg11.dtd">
<svg width="300pt" height="300pt" viewBox="0 0 300 300" version="1.1" xmlns="http://www.w3.org/2000/svg">
<g id="#ffffffff">
<path fill="#ffffff" opacity="1.00" d=" M 164.64 21.21 C 172.54 22.47 180.32 24.56 188.23 25.91 C 170.47 110.06 152.77 194.21 135.18 278.39 C 127.34 276.93 119.42 275.23 111.62 273.42 C 129.42 189.39 147.00 105.29 164.64 21.21 Z" />
<path fill="#ffffff" opacity="1.00" d=" M 81.36 65.21 C 87.44 70.10 92.76 76.00 98.76 81.03 L 98.91 81.61 C 76.88 104.96 55.23 128.67 33.16 151.97 L 33.16 152.45 C 55.19 175.26 76.82 198.48 98.94 221.21 C 93.39 226.92 87.37 232.24 81.75 237.92 C 59.49 214.95 37.59 191.61 15.47 168.50 C 10.42 163.04 4.85 157.76 0.16 152.14 C 27.44 123.38 54.26 94.15 81.36 65.21 Z" />
<path fill="#ffffff" opacity="1.00" d=" M 200.45 81.09 C 206.46 75.97 211.97 70.25 217.89 65.01 C 235.13 83.77 252.79 102.15 270.15 120.81 C 280.08 131.18 289.71 141.85 299.77 152.10 C 297.70 155.24 294.38 157.78 291.87 160.75 C 267.19 186.49 242.35 212.08 217.82 237.96 C 211.91 232.43 205.99 226.91 200.33 221.13 C 222.77 198.40 244.69 175.08 266.90 152.09 C 246.77 131.20 227.14 109.82 207.18 88.76 C 205.03 86.14 202.14 83.94 200.45 81.09 Z" />
</g>
</svg>
