<?xml version="1.0" encoding="UTF-8" ?>
<!DOCTYPE svg PUBLIC "-//W3C//DTD SVG 1.1//EN" "http://www.w3.org/Graphics/SVG/1.1/DTD/svg11.dtd">
<svg width="671pt" height="671pt" viewBox="0 0 671 671" version="1.1" xmlns="http://www.w3.org/2000/svg">
<g id="#ffffffff">
<path fill="#ffffff" opacity="1.00" d=" M 623.72 0.00 L 660.28 0.00 C 661.63 1.32 662.19 3.15 662.05 5.01 C 662.74 56.33 663.41 107.65 664.15 158.97 C 646.14 159.31 628.14 159.44 610.14 159.78 C 609.94 136.97 609.54 114.16 609.26 91.34 C 570.46 122.36 531.76 153.50 492.85 184.38 C 508.71 231.98 510.35 284.28 496.74 332.62 C 487.75 364.82 472.09 395.14 451.17 421.20 C 502.81 473.75 554.44 526.31 606.07 578.87 C 623.76 596.75 641.21 614.88 659.04 632.62 C 646.51 645.68 633.00 657.83 620.61 671.00 L 620.39 671.00 C 616.33 665.77 611.13 661.37 606.61 656.48 C 542.08 590.84 477.63 525.12 413.06 459.53 C 374.19 491.00 325.73 510.50 275.81 514.18 C 229.35 517.87 181.79 508.52 140.53 486.71 C 97.58 464.43 61.41 429.31 37.87 387.04 C 5.49 330.06 -2.39 260.08 15.42 197.11 C 22.24 172.61 33.06 149.26 46.98 127.99 C 74.75 85.49 115.82 51.85 162.96 32.99 C 217.93 10.77 280.87 9.23 336.93 28.46 C 391.50 47.00 439.05 85.15 469.12 134.30 C 502.43 107.74 535.64 81.06 568.94 54.50 C 546.67 55.02 524.40 54.86 502.13 55.12 C 502.16 37.13 501.94 19.13 501.88 1.13 C 538.92 0.86 575.97 0.65 613.01 0.37 C 616.58 0.32 620.18 0.66 623.72 0.00 M 184.04 78.45 C 134.26 97.44 92.84 137.34 72.17 186.46 C 83.73 199.11 95.05 211.98 106.60 224.64 C 146.38 190.26 186.24 155.97 226.05 121.63 C 231.36 127.44 236.34 133.55 241.54 139.46 C 246.92 144.80 251.65 150.74 256.76 156.33 C 282.25 185.23 307.92 213.96 333.37 242.89 C 355.77 225.06 378.08 207.14 400.44 189.27 C 410.13 181.30 420.28 173.85 429.67 165.55 C 410.28 132.27 381.48 104.48 347.13 86.96 C 297.25 61.17 236.33 57.98 184.04 78.45 M 102.24 300.68 C 87.00 283.81 71.96 266.77 56.61 250.01 C 53.34 292.98 64.26 337.00 87.82 373.14 C 115.52 416.54 160.61 448.49 210.86 459.86 C 259.51 471.21 312.37 463.59 355.61 438.48 C 389.00 419.30 416.64 390.29 434.16 356.01 C 455.83 313.98 461.51 264.20 450.52 218.26 C 409.67 251.18 368.58 283.80 327.68 316.66 C 326.90 317.25 325.66 318.58 325.01 317.02 C 316.79 306.62 308.56 296.22 299.75 286.32 C 273.49 256.66 247.20 227.03 220.93 197.39 C 181.27 231.70 141.18 265.54 102.24 300.68 Z" />
</g>
</svg>
